<?xml version="1.0" encoding="UTF-8" standalone="no"?>
<!-- Created with Inkscape (http://www.inkscape.org/) -->

<svg
   xmlns:dc="http://purl.org/dc/elements/1.1/"
   xmlns:cc="http://creativecommons.org/ns#"
   xmlns:rdf="http://www.w3.org/1999/02/22-rdf-syntax-ns#"
   xmlns:svg="http://www.w3.org/2000/svg"
   xmlns="http://www.w3.org/2000/svg"
   xmlns:sodipodi="http://sodipodi.sourceforge.net/DTD/sodipodi-0.dtd"
   xmlns:inkscape="http://www.inkscape.org/namespaces/inkscape"
   width="128.88042mm"
   height="39.356171mm"
   viewBox="0 0 456.66292 139.451"
   id="svg2"
   version="1.1"
   inkscape:version="0.91 r13725"
   sodipodi:docname="emblem.svg">
  <defs
     id="defs4" />
  <sodipodi:namedview
     id="base"
     pagecolor="#ffffff"
     bordercolor="#666666"
     borderopacity="1.0"
     inkscape:pageopacity="0.0"
     inkscape:pageshadow="2"
     inkscape:zoom="0.73797448"
     inkscape:cx="434.21514"
     inkscape:cy="-132.15655"
     inkscape:document-units="px"
     inkscape:current-layer="layer2"
     showgrid="false"
     inkscape:window-width="1920"
     inkscape:window-height="1017"
     inkscape:window-x="-8"
     inkscape:window-y="-8"
     inkscape:window-maximized="1"
     fit-margin-top="0"
     fit-margin-left="0"
     fit-margin-right="0"
     fit-margin-bottom="0" />
  <metadata
     id="metadata7">
    <rdf:RDF>
      <cc:Work
         rdf:about="">
        <dc:format>image/svg+xml</dc:format>
        <dc:type
           rdf:resource="http://purl.org/dc/dcmitype/StillImage" />
        <dc:title></dc:title>
      </cc:Work>
    </rdf:RDF>
  </metadata>
  <g
     inkscape:groupmode="layer"
     id="layer2"
     inkscape:label="1. réteg 1"
     style="display:inline"
     transform="translate(-99.76351,-69.995358)">
    <g
       id="g4150"
       transform="matrix(0.91702205,0,0,0.91702205,43.471123,8.3444165)">
      <path
         inkscape:connector-curvature="0"
         id="path3410"
         d="m 152.14368,210.45564 c 0.0314,-4.30471 0.0819,-18.56844 0.11216,-31.69714 0.0412,-17.87859 0.0819,-23.89566 0.16169,-23.9711 0.0587,-0.0554 1.64316,-0.96805 3.52112,-2.02814 3.11261,-1.75706 24.1085,-13.63634 40.59547,-22.96857 3.64948,-2.06572 6.64537,-3.74523 6.65753,-3.73222 0.0121,0.013 0.0369,14.31454 0.0551,31.78119 l 0.033,31.75753 -10.24338,5.74119 c -5.63386,3.15767 -17.15232,9.61184 -25.59659,14.34262 l -15.35318,8.60141 0.0571,-7.82677 z"
         style="display:inline;fill:#4787c5;fill-opacity:1" />
      <path
         inkscape:connector-curvature="0"
         id="path3430"
         d="m 143.58329,219.26294 c -0.30453,-0.0365 -0.82363,-0.13062 -1.15353,-0.20905 -0.32991,-0.0784 -1.05664,-0.1909 -1.61495,-0.2499 -0.83018,-0.0877 -1.06187,-0.14552 -1.27176,-0.31709 -0.22073,-0.18044 -0.77177,-0.39407 -1.02065,-0.39567 -0.0427,-2.7e-4 -0.2448,-0.13966 -0.44916,-0.30976 -0.20435,-0.1701 -0.4963,-0.33592 -0.64878,-0.36848 -0.16396,-0.0351 -0.29633,-0.1303 -0.32402,-0.23322 -0.0257,-0.0957 -0.20757,-0.25377 -0.40407,-0.35125 -0.1965,-0.0975 -0.35728,-0.2376 -0.35728,-0.31135 0,-0.0738 -0.12873,-0.21024 -0.28608,-0.30328 -0.15735,-0.0931 -0.36212,-0.29076 -0.45504,-0.43936 -0.093,-0.1486 -0.24661,-0.29414 -0.3415,-0.32343 -0.0949,-0.0293 -0.22424,-0.19229 -0.28743,-0.36222 -0.0632,-0.16993 -0.19398,-0.33338 -0.29066,-0.36322 -0.0967,-0.0298 -0.28067,-0.27705 -0.40898,-0.54958 -0.12825,-0.27243 -0.31106,-0.56312 -0.40622,-0.64597 -0.0951,-0.0829 -0.22387,-0.3272 -0.28603,-0.54299 -0.0621,-0.21579 -0.224,-0.49847 -0.35969,-0.62817 l -0.24669,-0.23581 -0.024,-30.31832 -0.024,-30.31829 0.37128,0.45677 c 1.12725,1.38675 3.47112,2.72161 5.83296,3.32194 1.79316,0.45578 2.2467,0.50279 4.77927,0.49535 2.14968,-0.006 2.46138,-0.0274 3.6039,-0.24401 0.68789,-0.13042 1.76214,-0.38165 2.38723,-0.5583 0.62508,-0.17664 1.14236,-0.30912 1.14953,-0.29439 0.007,0.0146 -0.0186,7.21479 -0.0573,16.00016 -0.0386,8.78538 -0.10143,23.15856 -0.13931,31.9404 l -0.069,15.96699 -0.27684,0.0747 c -0.4047,0.10918 -1.3823,0.24692 -2.1225,0.29906 -0.3553,0.025 -0.65991,0.0855 -0.67694,0.13451 -0.0171,0.049 -0.0695,0.0658 -0.11668,0.0375 -0.0471,-0.0284 -0.30315,-0.011 -0.56888,0.0386 -0.65931,0.12304 -2.7583,0.18846 -3.4362,0.10711 z"
         style="display:inline;fill:#4787c5;fill-opacity:1" />
      <path
         inkscape:connector-curvature="0"
         id="path3528"
         d="M 102.72566,112.9563 77.580549,98.919731 94.23564,89.53137 c 9.1603,-5.163595 21.81995,-12.293892 28.13254,-15.845108 l 11.47745,-6.456762 25.32819,14.207464 c 13.93051,7.814095 25.32645,14.28822 25.3243,14.386935 -0.006,0.258506 -55.90036,31.234821 -56.29646,31.198951 -0.182,-0.0165 -11.6462,-6.34644 -25.476,-14.06655 z"
         style="fill:#fcd109;fill-opacity:1" />
      <path
         inkscape:connector-curvature="0"
         id="path3530"
         d="m 135.81411,141.4677 c -0.003,-3.19946 -0.074,-3.49415 -1.46403,-6.15716 -0.80294,-1.53828 -2.27644,-3.66569 -3.27446,-4.72758 -0.99804,-1.0619 -1.75115,-1.98456 -1.67359,-2.05038 0.0776,-0.0658 12.83659,-7.18112 28.35341,-15.81181 l 28.2124,-15.692158 1.2247,1.376395 c 0.67358,0.757013 1.8481,2.580503 2.61004,4.052203 1.25877,2.43132 1.38525,2.93968 1.38425,5.56377 -10e-4,2.48252 -0.15177,3.17292 -1.07436,4.91764 l -1.07326,2.02967 -26.37448,14.84112 c -14.50595,8.16262 -26.48066,14.88105 -26.61046,14.92986 -0.1298,0.0488 -0.23788,-1.42341 -0.24016,-3.27157 z"
         style="fill:#fcd109;fill-opacity:1" />
      <path
         inkscape:connector-curvature="0"
         id="path3532"
         d="M 89.499564,203.40563 61.54601,187.78447 61.53781,159.11401 c -0.0066,-22.88925 0.08492,-28.59812 0.453283,-28.31168 0.253777,0.19732 12.67043,7.25941 27.592555,15.69351 14.922122,8.4341 27.339792,15.5276 27.594802,15.76334 0.36604,0.33836 0.44377,6.35992 0.36914,28.59812 l -0.0945,28.16951 -27.953565,-15.62118 z"
         style="fill:#ec574c;fill-opacity:1" />
      <path
         inkscape:connector-curvature="0"
         id="path3534"
         d="M 89.347995,144.47838 C 73.974267,135.7556 61.391517,128.41333 61.386314,128.16222 c -0.03362,-1.62178 3.53626,-7.33118 5.709266,-9.13108 1.069295,-0.8857 4.501776,-1.93608 6.654764,-2.03642 1.813001,-0.0845 2.265889,0.14488 20.8559,10.56365 10.451476,5.85753 22.515346,12.61136 26.808616,15.00854 6.15169,3.43482 7.63752,4.40401 7.01111,4.57328 -4.05465,1.09568 -8.3859,5.91307 -10.0536,11.18197 -0.3593,1.13519 -0.74753,2.05313 -0.86272,2.03988 -0.11518,-0.0132 -12.78793,-7.1609 -28.161655,-15.88366 z"
         style="fill:#ec574c;fill-opacity:1" />
      <text
         sodipodi:linespacing="125%"
         id="text3536"
         y="141.67345"
         x="222.33211"
         style="font-style:normal;font-weight:normal;font-size:59.5053978px;line-height:125%;font-family:sans-serif;letter-spacing:0px;word-spacing:0px;fill:#333333;fill-opacity:1;stroke:none;stroke-width:1px;stroke-linecap:butt;stroke-linejoin:miter;stroke-opacity:1"
         xml:space="preserve"><tspan
           style="font-style:normal;font-variant:normal;font-weight:bold;font-stretch:normal;font-size:66.943573px;font-family:'Open Sans';-inkscape-font-specification:'Open Sans Bold';fill:#333333;fill-opacity:1"
           y="141.67345"
           x="222.33211"
           id="tspan3538"
           sodipodi:role="line">Zsebtanár</tspan></text>
      <text
         sodipodi:linespacing="125%"
         id="text3356"
         y="186.6608"
         x="219.26213"
         style="font-style:normal;font-weight:normal;font-size:44.28443527px;line-height:125%;font-family:sans-serif;letter-spacing:0px;word-spacing:0px;fill:#333333;fill-opacity:1;stroke:none;stroke-width:1px;stroke-linecap:butt;stroke-linejoin:miter;stroke-opacity:1"
         xml:space="preserve"><tspan
           style="font-style:normal;font-variant:normal;font-weight:300;font-stretch:normal;font-family:'Open Sans';-inkscape-font-specification:'Open Sans Light';fill:#333333;fill-opacity:1"
           y="186.6608"
           x="219.26213"
           id="tspan3358"
           sodipodi:role="line">matek | másként</tspan></text>
    </g>
  </g>
</svg>
