<?xml version="1.0" encoding="UTF-8" standalone="no"?>
<svg
   xmlns:dc="http://purl.org/dc/elements/1.1/"
   xmlns:cc="http://creativecommons.org/ns#"
   xmlns:rdf="http://www.w3.org/1999/02/22-rdf-syntax-ns#"
   xmlns:svg="http://www.w3.org/2000/svg"
   xmlns="http://www.w3.org/2000/svg"
   id="svg3336"
   xml:space="preserve"
   enable-background="new 0 0 1993.4 1648.126"
   height="112.907"
   width="39.664761"
   y="0px"
   x="0px"
   version="1.0"><metadata
     id="metadata3359"><rdf:RDF><cc:Work
         rdf:about=""><dc:format>image/svg+xml</dc:format><dc:type
           rdf:resource="http://purl.org/dc/dcmitype/StillImage" /><dc:title></dc:title></cc:Work></rdf:RDF></metadata><defs
     id="defs3357" /><g
     transform="translate(-644.7571,-272.24815)"
     id="Vector_Elements"><!-- Pawn --><!-- King --><path
       style="fill:#231f20"
       id="path3341"
       d="m 682.33793,381.19715 c 0.018,-0.293 0,-0.615 -0.051,-0.967 1.459,-2.045 2.296,-4.487 2.109,-7.508 -0.203,-3.237 -1.936,-6.777 -3.747,-9.526 0.012,-0.245 -0.139,-0.265 -0.156,-0.463 l 0.212,-0.207 c 0.421,-0.019 1.447,-0.825 1.181,-1.832 -0.309,-1.258 -1.438,-1.532 -1.838,-1.532 -0.029,0 -0.145,0 -0.328,0 l 0,-0.326 -0.01,-0.173 c -3.878,-8.857 -7.576,-13.806 -8.71,-30.146 0.18,-0.507 0.279,-0.97 0.311,-1.395 2.085,0 3.768,0 3.841,-0.004 0.271,-0.031 2.078,-0.991 1.908,-2.767 -0.197,-2.225 -2.072,-3.179 -2.329,-3.179 -0.06,0 -0.764,0 -1.79,0 l -0.494,-10.358 c 0,0 6.162,-9.066 7.129,-10.629 0.696,-1.127 1.329,-2.582 1.329,-4.017 0,-3.272 -2.597,-5.927 -5.801,-5.927 -0.925,0 -2.363,0.002 -3.293,0.002 0,0 0,-1.055 0,-1.454 0,-0.938 -0.743,-1.698 -1.659,-1.698 -1.489,0 -9.32,0 -11.12,0 -0.92,0 -1.663,0.76 -1.663,1.698 0,0.399 0,1.454 0,1.454 -0.928,0 -2.367,-0.002 -3.293,-0.002 -3.202,0 -5.801,2.654 -5.801,5.927 0,1.435 0.635,2.89 1.329,4.017 0.967,1.562 7.209,10.88 7.209,10.88 l -0.574,10.107 c -0.992,0 -1.687,0 -1.748,0 -0.257,0 -2.242,0.8 -2.44,3.024 -0.17,1.777 1.75,2.89 2.02,2.921 0.079,0.004 1.77,0.004 3.826,0.004 0.105,0.196 0.22,0.401 0.335,0.607 -1.066,16.979 -4.248,21.935 -8.19,30.933 l 0.017,0.246 -0.071,0.253 -0.2,0 c -0.401,0 -1.53,0.274 -1.837,1.532 -0.247,0.934 0.615,1.689 1.076,1.806 0.031,0.2 -0.044,0.15 0.014,0.341 l -0.063,0.243 c -1.592,2.512 -3.953,5.772 -4.187,9.012 -0.231,3.239 0.739,6.37 2.355,8.484 l 0.061,0 c -0.047,0.194 -0.099,0.382 -0.154,0.56 l -0.136,0 c 0,0 -1.017,0.758 -1.359,1.574 -0.342,0.819 -0.348,2.443 -0.348,2.443 l 38.763,0 c 0,0 -0.095,-1.614 -0.39,-2.388 -0.254,-0.654 -1.028,-1.37 -1.253,-1.57 z" /><path
       style="fill:#231f20"
       id="path3343"
       d="m 659.56693,282.07715 c 1.491,-1.524 3.255,-2.191 3.947,-1.489 0.685,0.704 0.031,2.512 -1.46,4.032 -0.229,0.233 -0.473,0.451 -0.708,0.641 1.034,0.646 2.253,1.015 3.548,1.015 1.284,-0.002 2.482,-0.359 3.511,-0.982 -0.257,-0.202 -0.508,-0.425 -0.752,-0.679 -1.491,-1.521 -2.144,-3.324 -1.457,-4.026 0.687,-0.706 2.452,-0.035 3.945,1.489 0.247,0.247 0.467,0.502 0.665,0.766 0.606,-1.051 0.959,-2.274 0.959,-3.584 0,-1.323 -0.358,-2.562 -0.987,-3.619 -0.17,0.22 -0.37,0.449 -0.583,0.662 -1.493,1.529 -3.262,2.193 -3.945,1.49 -0.687,-0.703 -0.036,-2.506 1.455,-4.029 0.206,-0.213 0.413,-0.399 0.627,-0.573 -1.013,-0.604 -2.186,-0.943 -3.438,-0.943 -1.248,0 -2.422,0.344 -3.433,0.943 0.243,0.188 0.484,0.409 0.714,0.645 1.489,1.526 2.144,3.331 1.455,4.032 -0.686,0.7 -2.452,0.032 -3.943,-1.486 -0.243,-0.252 -0.465,-0.505 -0.66,-0.764 -0.629,1.06 -0.995,2.31 -0.995,3.646 0,1.273 0.334,2.48 0.92,3.511 0.189,-0.235 0.39,-0.471 0.615,-0.698 z" /><!-- Queen --><!-- Bishop --><!-- Rook --><!-- Knight --></g></svg>