<?xml version="1.0" encoding="UTF-8" standalone="no"?>
<svg
   xmlns:dc="http://purl.org/dc/elements/1.1/"
   xmlns:cc="http://creativecommons.org/ns#"
   xmlns:rdf="http://www.w3.org/1999/02/22-rdf-syntax-ns#"
   xmlns:svg="http://www.w3.org/2000/svg"
   xmlns="http://www.w3.org/2000/svg"
   id="svg3336"
   xml:space="preserve"
   enable-background="new 0 0 1993.4 1648.126"
   height="112.907"
   width="43.01078"
   y="0px"
   x="0px"
   version="1.0"><metadata
     id="metadata3359"><rdf:RDF><cc:Work
         rdf:about=""><dc:format>image/svg+xml</dc:format><dc:type
           rdf:resource="http://purl.org/dc/dcmitype/StillImage" /><dc:title></dc:title></cc:Work></rdf:RDF></metadata><defs
     id="defs3357" /><g
     transform="translate(-844.73705,-272.26715)"
     id="Vector_Elements"><!-- Pawn --><!-- King --><!-- Queen --><!-- Bishop --><!-- Rook --><!-- Knight --><path
       style="fill:#231f20"
       id="path3353"
       d="m 885.53293,319.17615 c -2.716,-1.835 -6.426,-6.214 -7.684,-9.321 -0.959,-2.369 -2.421,-3.716 -3.546,-4.305 0.399,-1.31 1.638,-2.51 -0.993,-4.772 -0.851,0.619 -1.727,1.347 -2.533,2.284 -4.367,-1.396 -11.376,-0.48 -16.286,3.183 -13.716,10.238 -10.624,43.964 -4.743,51.9 l 0.01,0 c -0.057,0.233 -0.101,0.461 -0.138,0.668 l -0.019,0 c -0.387,0 -1.479,0.281 -1.775,1.555 -0.239,0.939 0.579,1.701 1.03,1.831 -0.021,0.167 -0.03,0.347 -0.021,0.536 l -0.019,0 c -1.54,2.55 -3.822,5.854 -4.046,9.137 -0.224,3.287 0.714,6.462 2.276,8.605 l 0.014,0 c -0.085,0.21 -0.162,0.417 -0.233,0.621 l 0,0 c 0,0 -0.982,0.768 -1.315,1.596 -0.33,0.831 -0.334,2.48 -0.334,2.48 l 35.444,0 c 0,0 -0.091,-1.642 -0.376,-2.423 -0.278,-0.766 -1.218,-1.606 -1.264,-1.647 -0.075,-0.204 -0.168,-0.413 -0.267,-0.627 l 0.033,0 c 1.564,-2.144 2.469,-4.73 2.278,-7.966 -0.197,-3.329 -1.914,-6.972 -3.69,-9.776 l -0.016,0 -0.052,-0.51 0.188,0 c 0.409,-0.02 1.4,-0.837 1.143,-1.857 -0.296,-1.273 -1.39,-1.555 -1.775,-1.555 l -0.021,0 c 0.01,-0.201 -0.033,-0.429 -0.093,-0.668 l 0.011,0 1.524,-12.19 c -6.307,-5.065 -13.014,-14.584 -12.774,-23.576 0.042,-1.582 1.396,-1.398 1.438,-0.264 0.081,2.182 1.339,5.987 5.988,4.715 2.557,-0.698 5.126,-0.903 7.026,-0.172 1.85,0.706 2.209,1.57 3.893,2.423 0,0 1.721,-1.607 2.954,-4.017 1.144,-2.221 1.858,-3.802 -1.231,-5.888 z" /></g></svg>