<?xml version="1.0" encoding="UTF-8" standalone="no"?>
<!-- Created with Inkscape (http://www.inkscape.org/) -->

<svg
   xmlns:dc="http://purl.org/dc/elements/1.1/"
   xmlns:cc="http://creativecommons.org/ns#"
   xmlns:rdf="http://www.w3.org/1999/02/22-rdf-syntax-ns#"
   xmlns:svg="http://www.w3.org/2000/svg"
   xmlns="http://www.w3.org/2000/svg"
   xmlns:sodipodi="http://sodipodi.sourceforge.net/DTD/sodipodi-0.dtd"
   xmlns:inkscape="http://www.inkscape.org/namespaces/inkscape"
   width="36.722652mm"
   height="39.356171mm"
   viewBox="0 0 130.11964 139.451"
   id="svg2"
   version="1.1"
   inkscape:version="0.91 r13725"
   sodipodi:docname="logo.svg">
  <defs
     id="defs4" />
  <sodipodi:namedview
     id="base"
     pagecolor="#ffffff"
     bordercolor="#666666"
     borderopacity="1.0"
     inkscape:pageopacity="0.0"
     inkscape:pageshadow="2"
     inkscape:zoom="0.73797448"
     inkscape:cx="434.21514"
     inkscape:cy="-132.15655"
     inkscape:document-units="px"
     inkscape:current-layer="layer2"
     showgrid="false"
     inkscape:window-width="1920"
     inkscape:window-height="1017"
     inkscape:window-x="-8"
     inkscape:window-y="-8"
     inkscape:window-maximized="1"
     fit-margin-top="0"
     fit-margin-left="0"
     fit-margin-right="0"
     fit-margin-bottom="0" />
  <metadata
     id="metadata7">
    <rdf:RDF>
      <cc:Work
         rdf:about="">
        <dc:format>image/svg+xml</dc:format>
        <dc:type
           rdf:resource="http://purl.org/dc/dcmitype/StillImage" />
        <dc:title></dc:title>
      </cc:Work>
    </rdf:RDF>
  </metadata>
  <g
     inkscape:groupmode="layer"
     id="layer2"
     inkscape:label="1. réteg 1"
     style="display:inline"
     transform="translate(-99.763511,-69.995358)">
    <path
       style="display:inline;fill:#4787c5;fill-opacity:1"
       d="m 182.99023,201.33688 c 0.0288,-3.94752 0.0751,-17.02767 0.10286,-29.06698 0.0378,-16.39506 0.0751,-21.91284 0.14827,-21.98202 0.0538,-0.0508 1.50681,-0.88773 3.22894,-1.85985 2.85434,-1.61127 22.10803,-12.50483 37.22694,-21.06269 3.34666,-1.89431 6.09396,-3.43446 6.10511,-3.42253 0.0111,0.0119 0.0338,13.12675 0.0505,29.14406 l 0.0303,29.12235 -9.39341,5.2648 c -5.16637,2.89565 -15.72905,8.81427 -23.47264,13.1525 l -14.0792,7.88768 0.0524,-7.17732 z"
       id="path3410"
       inkscape:connector-curvature="0" />
    <path
       style="display:inline;fill:#4787c5;fill-opacity:1"
       d="m 175.14017,209.41337 c -0.27926,-0.0335 -0.75529,-0.11978 -1.05782,-0.19171 -0.30253,-0.0719 -0.96896,-0.17506 -1.48094,-0.22916 -0.76129,-0.0804 -0.97376,-0.13345 -1.16623,-0.29078 -0.20242,-0.16547 -0.70773,-0.36137 -0.93596,-0.36284 -0.0392,-2.4e-4 -0.22449,-0.12807 -0.41189,-0.28405 -0.18739,-0.15599 -0.45512,-0.30805 -0.59495,-0.33791 -0.15035,-0.0322 -0.27174,-0.11949 -0.29713,-0.21387 -0.0236,-0.0877 -0.19035,-0.23271 -0.37054,-0.3221 -0.1802,-0.0894 -0.32764,-0.21788 -0.32764,-0.28551 0,-0.0677 -0.11804,-0.1928 -0.26234,-0.27812 -0.14429,-0.0854 -0.33207,-0.26663 -0.41728,-0.4029 -0.0853,-0.13627 -0.22615,-0.26973 -0.31316,-0.29659 -0.087,-0.0269 -0.20563,-0.17634 -0.26358,-0.33217 -0.058,-0.15583 -0.17789,-0.30571 -0.26654,-0.33308 -0.0887,-0.0273 -0.25738,-0.25406 -0.37505,-0.50398 -0.1176,-0.24982 -0.28525,-0.51639 -0.37251,-0.59236 -0.0872,-0.076 -0.20529,-0.30005 -0.2623,-0.49794 -0.0569,-0.19788 -0.20541,-0.45711 -0.32984,-0.57604 l -0.22622,-0.21625 -0.022,-27.80256 -0.022,-27.80255 0.34048,0.41887 c 1.03371,1.27168 3.18309,2.49578 5.34895,3.0463 1.64437,0.41796 2.06027,0.46106 4.38269,0.45424 1.97131,-0.005 2.25714,-0.0251 3.30486,-0.22376 0.63081,-0.1196 1.61592,-0.34998 2.18914,-0.51197 0.57322,-0.16199 1.04757,-0.28347 1.05415,-0.26997 0.006,0.0134 -0.0171,6.61613 -0.0525,14.6725 -0.0354,8.05639 -0.093,21.23691 -0.12775,29.29005 l -0.0633,14.64209 -0.25387,0.0685 c -0.37112,0.10012 -1.2676,0.22643 -1.94638,0.27424 -0.32582,0.0229 -0.60515,0.0784 -0.62077,0.12335 -0.0157,0.0449 -0.0637,0.0603 -0.107,0.0344 -0.0432,-0.026 -0.27799,-0.0101 -0.52167,0.0354 -0.6046,0.11283 -2.52942,0.17282 -3.15107,0.0982 z"
       id="path3430"
       inkscape:connector-curvature="0" />
    <path
       style="fill:#fcd109;fill-opacity:1"
       d="M 137.67282,111.92783 114.6142,99.055991 129.88728,90.446657 c 8.4002,-4.735131 20.00938,-11.27377 25.79816,-14.530313 l 10.52508,-5.920994 23.22651,13.028558 c 12.77458,7.165698 23.22491,13.102613 23.22294,13.193137 -0.005,0.237056 -51.26187,28.643015 -51.6251,28.610125 -0.1669,-0.0151 -10.67982,-5.81982 -23.36205,-12.89934 z"
       id="path3528"
       inkscape:connector-curvature="0" />
    <path
       style="fill:#fcd109;fill-opacity:1"
       d="m 168.01566,138.07342 c -0.003,-2.93398 -0.0679,-3.20422 -1.34255,-5.64625 -0.73631,-1.41064 -2.08755,-3.36152 -3.00275,-4.3353 -0.91523,-0.97379 -1.60585,-1.81989 -1.53472,-1.88024 0.0712,-0.0603 11.77143,-6.58525 26.0007,-14.49978 l 25.87139,-14.390057 1.12308,1.262185 c 0.61769,0.694197 1.69475,2.366382 2.39346,3.715962 1.15432,2.22957 1.27031,2.69575 1.26939,5.1021 -9.2e-4,2.27652 -0.13917,2.90963 -0.98521,4.50958 l -0.9842,1.86125 -24.18598,13.60964 c -13.30228,7.4853 -24.28335,13.64625 -24.40238,13.69101 -0.11903,0.0447 -0.21814,-1.3053 -0.22023,-3.0001 z"
       id="path3530"
       inkscape:connector-curvature="0" />
    <path
       style="fill:#ec574c;fill-opacity:1"
       d="m 125.5442,194.87186 -25.634029,-14.32494 -0.0075,-26.29145 c -0.0061,-20.98994 0.07787,-26.2251 0.415669,-25.96243 0.23272,0.18094 11.61907,6.65704 25.30298,14.39129 13.68392,7.73426 25.0712,14.23915 25.30505,14.45533 0.33566,0.31029 0.40694,5.83219 0.3385,26.22511 l -0.0866,25.83206 -25.63404,-14.32497 z"
       id="path3532"
       inkscape:connector-curvature="0" />
    <path
       style="fill:#ec574c;fill-opacity:1"
       d="M 125.4052,140.83428 C 111.30716,132.8353 99.768498,126.10227 99.763727,125.872 c -0.03083,-1.48721 3.242823,-6.72286 5.235523,-8.3734 0.98057,-0.81221 4.12823,-1.77543 6.10256,-1.86745 1.66257,-0.0775 2.07787,0.13286 19.12532,9.6871 9.58424,5.37149 20.64707,11.5649 24.5841,13.76317 5.64123,3.1498 7.00377,4.03857 6.42934,4.1938 -3.7182,1.00476 -7.69006,5.42241 -9.21937,10.25411 -0.32949,1.04099 -0.68551,1.88276 -0.79114,1.87061 -0.10562,-0.0121 -11.72681,-6.5667 -25.82486,-14.56566 z"
       id="path3534"
       inkscape:connector-curvature="0" />
  </g>
</svg>
